<svg width="100%" viewBox="0 0 680 900">
<defs>
<marker id="arrow" viewBox="0 0 10 10" refX="8" refY="5" markerWidth="6" markerHeight="6" orient="auto-start-reverse">
<path d="M2 1L8 5L2 9" fill="none" stroke="context-stroke" stroke-width="1.5" stroke-linecap="round" stroke-linejoin="round"/>
</marker>
</defs>

<!-- Title -->
<g class="c-purple">
<rect x="40" y="20" width="600" height="38" rx="8" stroke-width="0.5"/>
<text class="th" x="340" y="39" text-anchor="middle" dominant-baseline="central">AI_Tutor_Project — repository tree</text>
</g>

<!-- Root label -->
<text class="ts" x="52" y="84" style="font-family:var(--font-mono)">📁 AI_Tutor_Project/</text>

<!-- archive -->
<line x1="64" y1="100" x2="64" y2="148" stroke="var(--color-border-secondary)" stroke-width="1"/>
<line x1="64" y1="108" x2="80" y2="108" stroke="var(--color-border-secondary)" stroke-width="1"/>
<text class="ts" x="86" y="112" style="font-family:var(--font-mono)">📁 archive/</text>
<line x1="80" y1="120" x2="80" y2="140" stroke="var(--color-border-secondary)" stroke-width="1"/>
<line x1="80" y1="128" x2="96" y2="128" stroke="var(--color-border-secondary)" stroke-width="1"/>
<text class="ts" x="100" y="132" style="font-family:var(--font-mono); fill:var(--color-text-secondary)">creation_script_v1_0.sql</text>
<line x1="80" y1="128" x2="80" y2="148" stroke="var(--color-border-secondary)" stroke-width="1"/>
<line x1="80" y1="144" x2="96" y2="144" stroke="var(--color-border-secondary)" stroke-width="1"/>
<text class="ts" x="100" y="148" style="font-family:var(--font-mono); fill:var(--color-text-secondary)">seed_data_original_248kb.sql</text>

<!-- backup -->
<line x1="64" y1="100" x2="64" y2="200" stroke="var(--color-border-secondary)" stroke-width="1"/>
<line x1="64" y1="168" x2="80" y2="168" stroke="var(--color-border-secondary)" stroke-width="1"/>
<text class="ts" x="86" y="172" style="font-family:var(--font-mono)">📁 backup/</text>
<line x1="80" y1="180" x2="80" y2="200" stroke="var(--color-border-secondary)" stroke-width="1"/>
<line x1="80" y1="186" x2="96" y2="186" stroke="var(--color-border-secondary)" stroke-width="1"/>
<text class="ts" x="100" y="190" style="font-family:var(--font-mono); fill:var(--color-text-secondary)">dump_ai_tutor.sql</text>
<line x1="80" y1="186" x2="80" y2="204" stroke="var(--color-border-secondary)" stroke-width="1"/>
<line x1="80" y1="200" x2="96" y2="200" stroke="var(--color-border-secondary)" stroke-width="1"/>
<text class="ts" x="100" y="204" style="font-family:var(--font-mono); fill:var(--color-text-secondary)">.gitkeep</text>

<!-- documentation_and_pipeline -->
<line x1="64" y1="100" x2="64" y2="340" stroke="var(--color-border-secondary)" stroke-width="1"/>
<line x1="64" y1="224" x2="80" y2="224" stroke="var(--color-border-secondary)" stroke-width="1"/>
<g class="c-teal">
<rect x="82" y="215" width="230" height="22" rx="4" stroke-width="0.5"/>
<text class="th" x="90" y="226" dominant-baseline="central" style="font-family:var(--font-mono)">📁 documentation_and_pipeline/</text>
</g>
<line x1="96" y1="238" x2="96" y2="318" stroke="var(--color-border-secondary)" stroke-width="1"/>
<line x1="96" y1="244" x2="112" y2="244" stroke="var(--color-border-secondary)" stroke-width="1"/>
<g class="c-teal"><rect x="114" y="237" width="168" height="18" rx="3" stroke-width="0.5"/>
<text class="ts" x="120" y="246" dominant-baseline="central" style="font-family:var(--font-mono)">AI_diagramming_DATABASE.png ✓</text></g>
<line x1="96" y1="244" x2="96" y2="264" stroke="var(--color-border-secondary)" stroke-width="1"/>
<line x1="96" y1="260" x2="112" y2="260" stroke="var(--color-border-secondary)" stroke-width="1"/>
<g class="c-teal"><rect x="114" y="253" width="128" height="18" rx="3" stroke-width="0.5"/>
<text class="ts" x="120" y="262" dominant-baseline="central" style="font-family:var(--font-mono)">AI_ER_SCHEMA.png ✓</text></g>
<line x1="96" y1="260" x2="96" y2="280" stroke="var(--color-border-secondary)" stroke-width="1"/>
<line x1="96" y1="276" x2="112" y2="276" stroke="var(--color-border-secondary)" stroke-width="1"/>
<text class="ts" x="116" y="280" style="font-family:var(--font-mono); fill:var(--color-text-secondary)">DOCUMENTATION.md</text>
<line x1="96" y1="276" x2="96" y2="296" stroke="var(--color-border-secondary)" stroke-width="1"/>
<line x1="96" y1="292" x2="112" y2="292" stroke="var(--color-border-secondary)" stroke-width="1"/>
<text class="ts" x="116" y="296" style="font-family:var(--font-mono); fill:var(--color-text-secondary)">Pipeline_AI.png</text>
<line x1="96" y1="292" x2="96" y2="312" stroke="var(--color-border-secondary)" stroke-width="1"/>
<line x1="96" y1="308" x2="112" y2="308" stroke="var(--color-border-secondary)" stroke-width="1"/>
<text class="ts" x="116" y="312" style="font-family:var(--font-mono); fill:var(--color-text-secondary)">PRESENTATION.pdf</text>

<!-- root files -->
<line x1="64" y1="100" x2="64" y2="380" stroke="var(--color-border-secondary)" stroke-width="1"/>
<line x1="64" y1="336" x2="80" y2="336" stroke="var(--color-border-secondary)" stroke-width="1"/>
<text class="ts" x="84" y="340" style="font-family:var(--font-mono); fill:var(--color-text-secondary)">BUG_REPORT.md</text>
<line x1="64" y1="336" x2="64" y2="356" stroke="var(--color-border-secondary)" stroke-width="1"/>
<line x1="64" y1="352" x2="80" y2="352" stroke="var(--color-border-secondary)" stroke-width="1"/>
<text class="ts" x="84" y="356" style="font-family:var(--font-mono); fill:var(--color-text-secondary)">DOCUMENTATION.md</text>
<line x1="64" y1="352" x2="64" y2="372" stroke="var(--color-border-secondary)" stroke-width="1"/>
<line x1="64" y1="368" x2="80" y2="368" stroke="var(--color-border-secondary)" stroke-width="1"/>
<text class="ts" x="84" y="372" style="font-family:var(--font-mono); fill:var(--color-text-secondary)">firestore_export.json</text>
<line x1="64" y1="368" x2="64" y2="388" stroke="var(--color-border-secondary)" stroke-width="1"/>
<line x1="64" y1="384" x2="80" y2="384" stroke="var(--color-border-secondary)" stroke-width="1"/>
<text class="ts" x="84" y="388" style="font-family:var(--font-mono); fill:var(--color-text-secondary)">.gitignore</text>

<!-- .github -->
<line x1="64" y1="384" x2="64" y2="460" stroke="var(--color-border-secondary)" stroke-width="1"/>
<line x1="64" y1="408" x2="80" y2="408" stroke="var(--color-border-secondary)" stroke-width="1"/>
<text class="ts" x="86" y="412" style="font-family:var(--font-mono)">📁 .github/workflows/</text>
<line x1="80" y1="420" x2="80" y2="492" stroke="var(--color-border-secondary)" stroke-width="1"/>
<line x1="80" y1="426" x2="96" y2="426" stroke="var(--color-border-secondary)" stroke-width="1"/>
<text class="ts" x="100" y="430" style="font-family:var(--font-mono); fill:var(--color-text-secondary)">backup-weekly.yml</text>
<line x1="80" y1="426" x2="80" y2="443" stroke="var(--color-border-secondary)" stroke-width="1"/>
<line x1="80" y1="442" x2="96" y2="442" stroke="var(--color-border-secondary)" stroke-width="1"/>
<text class="ts" x="100" y="446" style="font-family:var(--font-mono); fill:var(--color-text-secondary)">deploy-schema-fixes2.yml</text>
<line x1="80" y1="442" x2="80" y2="459" stroke="var(--color-border-secondary)" stroke-width="1"/>
<line x1="80" y1="458" x2="96" y2="458" stroke="var(--color-border-secondary)" stroke-width="1"/>
<text class="ts" x="100" y="462" style="font-family:var(--font-mono); fill:var(--color-text-secondary)">deploy-schema-fixes.yml</text>
<line x1="80" y1="458" x2="80" y2="475" stroke="var(--color-border-secondary)" stroke-width="1"/>
<line x1="80" y1="474" x2="96" y2="474" stroke="var(--color-border-secondary)" stroke-width="1"/>
<text class="ts" x="100" y="478" style="font-family:var(--font-mono); fill:var(--color-text-secondary)">deploy-schema.yml</text>
<line x1="80" y1="474" x2="80" y2="491" stroke="var(--color-border-secondary)" stroke-width="1"/>
<line x1="80" y1="490" x2="96" y2="490" stroke="var(--color-border-secondary)" stroke-width="1"/>
<text class="ts" x="100" y="494" style="font-family:var(--font-mono); fill:var(--color-text-secondary)">deploy-seeds.yml</text>

<!-- py -->
<line x1="64" y1="408" x2="64" y2="560" stroke="var(--color-border-secondary)" stroke-width="1"/>
<line x1="64" y1="516" x2="80" y2="516" stroke="var(--color-border-secondary)" stroke-width="1"/>
<text class="ts" x="86" y="520" style="font-family:var(--font-mono)">📁 py/</text>
<line x1="80" y1="528" x2="80" y2="548" stroke="var(--color-border-secondary)" stroke-width="1"/>
<line x1="80" y1="534" x2="96" y2="534" stroke="var(--color-border-secondary)" stroke-width="1"/>
<text class="ts" x="100" y="538" style="font-family:var(--font-mono); fill:var(--color-text-secondary)">ai_pipeline_simulator.py</text>
<line x1="80" y1="534" x2="80" y2="551" stroke="var(--color-border-secondary)" stroke-width="1"/>
<line x1="80" y1="550" x2="96" y2="550" stroke="var(--color-border-secondary)" stroke-width="1"/>
<text class="ts" x="100" y="554" style="font-family:var(--font-mono); fill:var(--color-text-secondary)">firebase_to_sql.py</text>

<!-- sql -->
<line x1="64" y1="516" x2="64" y2="840" stroke="var(--color-border-secondary)" stroke-width="1"/>
<line x1="64" y1="574" x2="80" y2="574" stroke="var(--color-border-secondary)" stroke-width="1"/>
<text class="ts" x="86" y="578" style="font-family:var(--font-mono)">📁 sql/</text>

<line x1="80" y1="586" x2="80" y2="838" stroke="var(--color-border-secondary)" stroke-width="1"/>
<line x1="80" y1="592" x2="96" y2="592" stroke="var(--color-border-secondary)" stroke-width="1"/>
<text class="ts" x="100" y="596" style="font-family:var(--font-mono); fill:var(--color-text-secondary)">add_referential_actions.sql</text>
<line x1="80" y1="592" x2="80" y2="608" stroke="var(--color-border-secondary)" stroke-width="1"/>
<line x1="80" y1="608" x2="96" y2="608" stroke="var(--color-border-secondary)" stroke-width="1"/>
<text class="ts" x="100" y="612" style="font-family:var(--font-mono); fill:var(--color-text-secondary)">database_schema.sql</text>
<line x1="80" y1="608" x2="80" y2="624" stroke="var(--color-border-secondary)" stroke-width="1"/>
<line x1="80" y1="624" x2="96" y2="624" stroke="var(--color-border-secondary)" stroke-width="1"/>
<text class="ts" x="100" y="628" style="font-family:var(--font-mono); fill:var(--color-text-secondary)">queries.sql</text>
<line x1="80" y1="624" x2="80" y2="640" stroke="var(--color-border-secondary)" stroke-width="1"/>
<line x1="80" y1="640" x2="96" y2="640" stroke="var(--color-border-secondary)" stroke-width="1"/>
<text class="ts" x="100" y="644" style="font-family:var(--font-mono); fill:var(--color-text-secondary)">schema_fixes_v3_1.sql</text>
<line x1="80" y1="640" x2="80" y2="656" stroke="var(--color-border-secondary)" stroke-width="1"/>
<line x1="80" y1="656" x2="96" y2="656" stroke="var(--color-border-secondary)" stroke-width="1"/>
<text class="ts" x="100" y="660" style="font-family:var(--font-mono); fill:var(--color-text-secondary)">schema.sql</text>
<line x1="80" y1="656" x2="80" y2="672" stroke="var(--color-border-secondary)" stroke-width="1"/>
<line x1="80" y1="672" x2="96" y2="672" stroke="var(--color-border-secondary)" stroke-width="1"/>
<text class="ts" x="100" y="676" style="font-family:var(--font-mono); fill:var(--color-text-secondary)">verify_schema.sql</text>
<line x1="80" y1="672" x2="80" y2="688" stroke="var(--color-border-secondary)" stroke-width="1"/>
<line x1="80" y1="688" x2="96" y2="688" stroke="var(--color-border-secondary)" stroke-width="1"/>
<text class="ts" x="100" y="692" style="font-family:var(--font-mono); fill:var(--color-text-secondary)">seed_01_lookup.sql</text>
<line x1="80" y1="688" x2="80" y2="704" stroke="var(--color-border-secondary)" stroke-width="1"/>
<line x1="80" y1="704" x2="96" y2="704" stroke="var(--color-border-secondary)" stroke-width="1"/>
<text class="ts" x="100" y="708" style="font-family:var(--font-mono); fill:var(--color-text-secondary)">seed_02_1…seed_02_6_content.sql</text>
<line x1="80" y1="704" x2="80" y2="720" stroke="var(--color-border-secondary)" stroke-width="1"/>
<line x1="80" y1="720" x2="96" y2="720" stroke="var(--color-border-secondary)" stroke-width="1"/>
<text class="ts" x="100" y="724" style="font-family:var(--font-mono); fill:var(--color-text-secondary)">seed_03_1…seed_03_3_lemma.sql</text>
<line x1="80" y1="720" x2="80" y2="736" stroke="var(--color-border-secondary)" stroke-width="1"/>
<line x1="80" y1="736" x2="96" y2="736" stroke="var(--color-border-secondary)" stroke-width="1"/>
<text class="ts" x="100" y="740" style="font-family:var(--font-mono); fill:var(--color-text-secondary)">seed_04a_relations.sql</text>
<line x1="80" y1="736" x2="80" y2="752" stroke="var(--color-border-secondary)" stroke-width="1"/>
<line x1="80" y1="752" x2="96" y2="752" stroke="var(--color-border-secondary)" stroke-width="1"/>
<text class="ts" x="100" y="756" style="font-family:var(--font-mono); fill:var(--color-text-secondary)">seed_04b_media.sql</text>

<!-- legend -->
<g class="c-teal">
<rect x="40" y="800" width="220" height="22" rx="4" stroke-width="0.5"/>
<text class="ts" x="50" y="811" dominant-baseline="central">✓  aggiornato oggi — v3.1</text>
</g>
<text class="ts" x="40" y="840" style="fill:var(--color-text-secondary)">AI_Tutor_Project · GitHub · main · 12 Mar 2026</text>
</svg>
